<svg width="17" height="24" viewBox="0 0 17 24" fill="none" xmlns="http://www.w3.org/2000/svg">
<g clip-path="url(#clip0_580_11770)">
<path d="M7.78894 -3.05176e-05L7.62793 0.546887V16.4158L7.78894 16.5764L15.155 12.2223L7.78894 -3.05176e-05Z" fill="#343434"/>
<path d="M7.7871 -3.05176e-05L0.420898 12.2223L7.7871 16.5764V8.87409V-3.05176e-05Z" fill="#8C8C8C"/>
<path d="M7.78899 17.9716L7.69824 18.0823V23.735L7.78899 24L15.1595 13.6198L7.78899 17.9716Z" fill="#3C3C3B"/>
<path d="M7.7871 24V17.9716L0.420898 13.6198L7.7871 24Z" fill="#8C8C8C"/>
<path d="M7.79199 16.5762L15.158 12.222L7.79199 8.87384V16.5762Z" fill="#141414"/>
<path d="M0.420898 12.222L7.7871 16.5762V8.87384L0.420898 12.222Z" fill="#393939"/>
</g>
<defs>
<clipPath id="clip0_580_11770">
<rect width="16.4997" height="24" fill="white" transform="translate(-0.00976562 -3.05176e-05)"/>
</clipPath>
</defs>
</svg>
