<svg width="51" height="52" viewBox="0 0 51 52" fill="none" xmlns="http://www.w3.org/2000/svg">
<path d="M38.982 48.5269C44.3515 45.4325 48.4391 40.522 50.5081 34.6802L36.9191 29.8673C35.9973 32.47 34.1761 34.6578 31.7838 36.0364C29.3916 37.415 26.5855 37.8938 23.8715 37.3865C21.1574 36.8792 18.7138 35.419 16.9811 33.2693C15.2484 31.1196 14.3405 28.4217 14.4212 25.6618C14.4359 25.156 14.4837 24.6543 14.5633 24.1595C15.3069 14.4104 28.2533 2.04964 50.9371 18.6424C49.1963 12.7419 45.4189 7.64838 40.2748 4.26925C35.0951 0.86671 28.8704 -0.573767 22.7225 0.207438C16.5746 0.988642 10.908 3.94015 6.74387 8.53C2.57975 13.1199 0.192046 19.0462 0.0110938 25.2408C-0.169859 31.4355 1.86784 37.4911 5.75695 42.3162C9.64605 47.1413 15.1307 50.4185 21.2225 51.5572C27.3143 52.696 33.6125 51.6213 38.982 48.5269Z" fill="url(#paint0_radial_193_13861)"/>
<path d="M23.064 37.1428C21.124 25.8678 28.2383 9.79145 50.7103 18.5309C18.6998 -6.39278 1.93902 32.4596 23.064 37.1428Z" fill="url(#paint1_linear_193_13861)"/>
<defs>
<radialGradient id="paint0_radial_193_13861" cx="0" cy="0" r="1" gradientUnits="userSpaceOnUse" gradientTransform="translate(25.4686 26) rotate(90) scale(26 25.4686)">
<stop stop-color="#6D6D6D"/>
<stop offset="1" stop-color="#0B0B0B"/>
</radialGradient>
<linearGradient id="paint1_linear_193_13861" x1="42.6144" y1="10.2523" x2="21.761" y2="37.1428" gradientUnits="userSpaceOnUse">
<stop stop-color="#AEAEAE"/>
<stop offset="1" stop-color="#080808"/>
</linearGradient>
</defs>
</svg>
