<svg width="89" height="17" viewBox="0 0 89 17" fill="none" xmlns="http://www.w3.org/2000/svg">
<path d="M10.0221 4.84181C9.95993 4.21462 9.69298 3.72738 9.22129 3.38009C8.7496 3.0328 8.10945 2.85916 7.30084 2.85916C6.7514 2.85916 6.28748 2.93691 5.90909 3.09241C5.5307 3.24273 5.24043 3.45266 5.03828 3.7222C4.84131 3.99174 4.74282 4.29756 4.74282 4.63966C4.73246 4.92475 4.79207 5.17355 4.92165 5.38607C5.05642 5.59859 5.24043 5.7826 5.47368 5.93811C5.70694 6.08843 5.97648 6.2206 6.2823 6.33464C6.58812 6.44349 6.91467 6.53679 7.26196 6.61454L8.69258 6.95665C9.38716 7.11215 10.0247 7.31949 10.6053 7.57866C11.1858 7.83783 11.6886 8.15661 12.1136 8.535C12.5387 8.91339 12.8678 9.35916 13.1011 9.87232C13.3395 10.3855 13.4613 10.9738 13.4665 11.6373C13.4613 12.6118 13.2125 13.4566 12.7201 14.172C12.2329 14.8821 11.5279 15.4341 10.6053 15.8281C9.6878 16.2168 8.58114 16.4112 7.28529 16.4112C5.9998 16.4112 4.88018 16.2142 3.92644 15.8203C2.97787 15.4263 2.23664 14.8432 1.70275 14.0709C1.17404 13.2934 0.89673 12.3318 0.870813 11.1863H4.12859C4.16487 11.7202 4.31778 12.166 4.58732 12.5236C4.86204 12.8761 5.22747 13.1431 5.68361 13.3245C6.14494 13.5007 6.66587 13.5888 7.24641 13.5888C7.81659 13.5888 8.3116 13.5059 8.73146 13.34C9.1565 13.1742 9.48565 12.9435 9.7189 12.648C9.95215 12.3526 10.0688 12.0131 10.0688 11.6295C10.0688 11.2718 9.96252 10.9712 9.75 10.7276C9.54266 10.484 9.23684 10.2766 8.83254 10.1056C8.43341 9.93452 7.94358 9.77902 7.36304 9.63906L5.62919 9.20366C4.28668 8.8771 3.22667 8.36654 2.44916 7.67196C1.67165 6.97738 1.28549 6.04177 1.29067 4.86514C1.28549 3.90102 1.54207 3.05872 2.06041 2.33823C2.58393 1.61773 3.30183 1.05533 4.21411 0.651025C5.1264 0.246719 6.16308 0.0445655 7.32416 0.0445655C8.50598 0.0445655 9.53748 0.246719 10.4187 0.651025C11.305 1.05533 11.9944 1.61773 12.4868 2.33823C12.9793 3.05872 13.2333 3.89325 13.2488 4.84181H10.0221ZM30.3638 8.22399C30.3638 9.96044 30.0346 11.4377 29.3763 12.6558C28.7232 13.8739 27.8317 14.8043 26.7017 15.4471C25.5769 16.0846 24.3122 16.4034 22.9074 16.4034C21.4924 16.4034 20.2224 16.082 19.0976 15.4393C17.9728 14.7966 17.0839 13.8661 16.4308 12.648C15.7777 11.4299 15.4511 9.95525 15.4511 8.22399C15.4511 6.48755 15.7777 5.01028 16.4308 3.79217C17.0839 2.57407 17.9728 1.64624 19.0976 1.00868C20.2224 0.365937 21.4924 0.0445655 22.9074 0.0445655C24.3122 0.0445655 25.5769 0.365937 26.7017 1.00868C27.8317 1.64624 28.7232 2.57407 29.3763 3.79217C30.0346 5.01028 30.3638 6.48755 30.3638 8.22399ZM26.9505 8.22399C26.9505 7.09919 26.782 6.15063 26.4451 5.3783C26.1134 4.60597 25.6443 4.02024 25.0378 3.62112C24.4314 3.222 23.7212 3.02244 22.9074 3.02244C22.0937 3.02244 21.3835 3.222 20.7771 3.62112C20.1706 4.02024 19.6989 4.60597 19.362 5.3783C19.0303 6.15063 18.8644 7.09919 18.8644 8.22399C18.8644 9.34879 19.0303 10.2974 19.362 11.0697C19.6989 11.842 20.1706 12.4277 20.7771 12.8269C21.3835 13.226 22.0937 13.4255 22.9074 13.4255C23.7212 13.4255 24.4314 13.226 25.0378 12.8269C25.6443 12.4277 26.1134 11.842 26.4451 11.0697C26.782 10.2974 26.9505 9.34879 26.9505 8.22399ZM32.8577 16.1857V0.262269H36.2243V13.41H43.0508V16.1857H32.8577Z" fill="white"/>
<path d="M48.4312 16.1857H44.8236L50.3206 0.262269H54.6591L60.1483 16.1857H56.5407L52.552 3.90103H52.4276L48.4312 16.1857ZM48.2057 9.92674H56.7273V12.5547H48.2057V9.92674ZM75.3662 5.83703H71.9607C71.8985 5.39644 71.7715 5.00509 71.5797 4.66299C71.3879 4.3157 71.1417 4.02024 70.8411 3.77662C70.5404 3.533 70.1931 3.3464 69.7992 3.21681C69.4104 3.08723 68.988 3.02244 68.5319 3.02244C67.7077 3.02244 66.9898 3.22718 66.3781 3.63667C65.7665 4.04098 65.2922 4.63189 64.9553 5.4094C64.6184 6.18173 64.4499 7.11992 64.4499 8.22399C64.4499 9.35916 64.6184 10.3129 64.9553 11.0852C65.2974 11.8576 65.7743 12.4407 66.3859 12.8346C66.9976 13.2286 67.7051 13.4255 68.5085 13.4255C68.9595 13.4255 69.3767 13.3659 69.7603 13.2467C70.1491 13.1275 70.4938 12.9539 70.7944 12.7258C71.095 12.4925 71.3439 12.21 71.5408 11.8783C71.743 11.5466 71.8829 11.1682 71.9607 10.7431L75.3662 10.7587C75.2781 11.4895 75.0578 12.1945 74.7053 12.8735C74.358 13.5474 73.8889 14.1512 73.298 14.6851C72.7123 15.2138 72.0125 15.6337 71.1987 15.9447C70.3901 16.2505 69.4752 16.4034 68.4541 16.4034C67.0338 16.4034 65.7639 16.082 64.6443 15.4393C63.5299 14.7966 62.6487 13.8661 62.0007 12.648C61.358 11.4299 61.0366 9.95525 61.0366 8.22399C61.0366 6.48755 61.3632 5.01028 62.0163 3.79217C62.6694 2.57407 63.5558 1.64624 64.6754 1.00868C65.795 0.365937 67.0546 0.0445655 68.4541 0.0445655C69.3767 0.0445655 70.232 0.174151 71.0199 0.433322C71.813 0.692492 72.5153 1.07088 73.1269 1.56849C73.7386 2.06091 74.2362 2.66478 74.6198 3.38009C75.0085 4.0954 75.2573 4.91438 75.3662 5.83703ZM77.7804 16.1857V0.262269H88.51V3.03799H81.147V6.83225H87.958V9.60796H81.147V13.41H88.5411V16.1857H77.7804Z" fill="#34A0CD"/>
</svg>
