<svg width="42" height="41" viewBox="0 0 42 41" fill="none" xmlns="http://www.w3.org/2000/svg">
<path d="M0 10.3714H11.5714C12.8571 10.3714 13.8857 11.4 13.8857 12.6857C13.8857 13.9714 12.8571 15 11.5714 15H0C0.428571 20.8286 5.31428 25.3714 11.2286 25.3714H11.6571C12.9429 25.3714 13.9714 26.4 13.9714 27.6857C13.9714 28.9714 12.9429 30 11.6571 30H11.2286C5.31428 30 0.428571 34.5429 0 40.3714H30.7714C36.6857 40.3714 41.5714 35.8286 42 30H30.4286C29.1429 30 28.1143 28.9714 28.1143 27.6857C28.1143 26.4 29.1429 25.3714 30.4286 25.3714H42C41.5714 19.5429 36.6857 15 30.7714 15H30.3429C29.0571 15 28.0286 13.9714 28.0286 12.6857C28.0286 11.4 29.0571 10.3714 30.3429 10.3714H30.7714C36.6857 10.3714 41.5714 5.82857 42 0H11.2286C5.31428 0 0.428571 4.54286 0 10.3714Z" fill="white"/>
</svg>
