<svg width="24" height="24" viewBox="0 0 24 24" fill="none" xmlns="http://www.w3.org/2000/svg">
<path d="M11.9902 22C17.5131 22 21.9902 17.5228 21.9902 12C21.9902 6.47715 17.5131 2 11.9902 2C6.46739 2 1.99023 6.47715 1.99023 12C1.99023 17.5228 6.46739 22 11.9902 22Z" fill="#FF007A"/>
<path d="M9.64375 5.17697C9.46563 5.14947 9.45813 5.14572 9.54188 5.13322C9.7025 5.10822 10.0825 5.1426 10.3444 5.20447C10.955 5.3501 11.5106 5.72197 12.1044 6.3826L12.2619 6.5576L12.4869 6.52197C13.4369 6.36885 14.4038 6.49072 15.2119 6.86385C15.4344 6.96635 15.785 7.17072 15.8288 7.22385C15.8431 7.2401 15.8688 7.34822 15.8856 7.46322C15.9456 7.86135 15.9156 8.16635 15.7944 8.39447C15.7281 8.51822 15.7244 8.55697 15.7688 8.66322C15.7898 8.70711 15.8228 8.7442 15.8639 8.77027C15.905 8.79635 15.9526 8.81036 16.0013 8.81072C16.2025 8.81072 16.4188 8.48572 16.5188 8.03385L16.5588 7.85447L16.6375 7.94385C17.07 8.43385 17.4094 9.10197 17.4675 9.57697L17.4831 9.70134L17.41 9.58885C17.285 9.3951 17.16 9.2626 16.9988 9.15572C16.7088 8.96385 16.4019 8.89885 15.5894 8.85572C14.8556 8.81697 14.44 8.75447 14.0288 8.6201C13.3281 8.39197 12.975 8.0876 12.1425 6.99572C11.7731 6.51072 11.5444 6.2426 11.3175 6.02697C10.8006 5.53572 10.2931 5.27822 9.64375 5.17697Z" fill="white"/>
<path d="M16.0386 6.62625C16.0573 6.30125 16.1011 6.08687 16.1898 5.89125C16.2248 5.81375 16.258 5.75 16.263 5.75C16.2574 5.79387 16.2458 5.83677 16.2286 5.8775C16.1642 6.0675 16.1536 6.3275 16.198 6.62937C16.2542 7.01313 16.2867 7.06813 16.6917 7.4825C16.8823 7.67687 17.1036 7.92187 17.1836 8.0275L17.3292 8.21875L17.1836 8.08188C17.0055 7.915 16.5955 7.58813 16.5048 7.54188C16.4442 7.51063 16.4348 7.51125 16.3973 7.54813C16.363 7.58313 16.3555 7.63437 16.3511 7.87875C16.3436 8.25875 16.2917 8.50375 16.1661 8.7475C16.0986 8.87875 16.088 8.85125 16.1492 8.70188C16.1948 8.59062 16.1992 8.54187 16.1992 8.17375C16.1992 7.43375 16.1111 7.25625 15.5955 6.95125C15.4403 6.86122 15.281 6.77863 15.118 6.70375C15.0374 6.67145 14.9593 6.63343 14.8842 6.59C14.8986 6.57562 15.4011 6.72187 15.603 6.8C15.9042 6.91562 15.9536 6.93062 15.9905 6.91625C16.0148 6.90688 16.0267 6.83562 16.0386 6.62625ZM10.0342 7.89187C9.67234 7.39375 9.44859 6.62937 9.49672 6.05813L9.51172 5.88125L9.59422 5.89625C9.74922 5.92437 10.0161 6.02375 10.1411 6.1C10.4836 6.30813 10.6323 6.5825 10.783 7.28625C10.8273 7.4925 10.8855 7.72563 10.9123 7.805C10.9548 7.93187 11.1173 8.22875 11.2498 8.42188C11.3448 8.56063 11.2811 8.62625 11.0711 8.6075C10.7498 8.57812 10.3148 8.27812 10.0342 7.89187ZM15.5998 11.6013C13.908 10.92 13.3123 10.3288 13.3123 9.33125C13.3123 9.18437 13.3173 9.06437 13.323 9.06437C13.3292 9.06437 13.3948 9.1125 13.4686 9.17188C13.8117 9.44688 14.1961 9.56438 15.2592 9.71938C15.8848 9.81125 16.2373 9.885 16.5623 9.9925C17.5948 10.335 18.2336 11.03 18.3861 11.9762C18.4298 12.2513 18.4042 12.7669 18.3323 13.0388C18.2761 13.2538 18.103 13.6406 18.0573 13.6556C18.0448 13.6594 18.0323 13.6113 18.0286 13.5444C18.0111 13.1894 17.8317 12.8431 17.5298 12.5837C17.1867 12.2894 16.7267 12.0544 15.5998 11.6013ZM14.4123 11.8837C14.3924 11.763 14.365 11.6436 14.3305 11.5263L14.2867 11.3975L14.3673 11.4875C14.478 11.6125 14.5661 11.7713 14.6398 11.9838C14.6967 12.1456 14.703 12.1938 14.7023 12.4569C14.7023 12.7156 14.6955 12.7694 14.643 12.9156C14.57 13.1301 14.4477 13.3244 14.2861 13.4831C13.9767 13.7981 13.5798 13.9719 13.0061 14.0444C12.9061 14.0569 12.6161 14.0781 12.3605 14.0913C11.7167 14.125 11.2936 14.1938 10.913 14.3275C10.8786 14.3429 10.8418 14.3518 10.8042 14.3538C10.7892 14.3381 11.048 14.1838 11.2623 14.0806C11.5642 13.935 11.8642 13.8556 12.5373 13.7438C12.8698 13.6881 13.2136 13.6213 13.3005 13.5944C14.1242 13.3419 14.548 12.6906 14.4123 11.8837Z" fill="white"/>
<path d="M14.7815 13.4694C14.5565 12.9862 14.5052 12.5194 14.6284 12.0844C14.6415 12.0381 14.6627 12 14.6752 12C14.7175 12.0153 14.7573 12.0368 14.7934 12.0637C14.8971 12.1337 15.1046 12.2513 15.6577 12.5525C16.3484 12.9294 16.7421 13.2212 17.0102 13.5537C17.2446 13.8456 17.3896 14.1781 17.4596 14.5831C17.499 14.8125 17.4759 15.3644 17.4171 15.5956C17.2315 16.3244 16.7996 16.8969 16.1846 17.2306C16.1266 17.2642 16.0664 17.2941 16.0046 17.32C15.9959 17.32 16.0284 17.2369 16.0777 17.1344C16.284 16.7019 16.3084 16.2806 16.1515 15.8119C16.0559 15.525 15.8602 15.1744 15.4659 14.5831C15.0071 13.8956 14.8946 13.7119 14.7815 13.4694ZM8.42711 16.0763C9.05523 15.5463 9.83586 15.17 10.5477 15.0544C10.854 15.0044 11.3652 15.0244 11.649 15.0969C12.104 15.2131 12.5115 15.4744 12.7234 15.785C12.9296 16.0887 13.019 16.3537 13.1109 16.9425C13.1484 17.175 13.1877 17.4081 13.1996 17.4612C13.2684 17.7662 13.404 18.0106 13.5715 18.1331C13.8371 18.3275 14.2952 18.3394 14.7452 18.1644C14.7923 18.1428 14.8418 18.1273 14.8927 18.1181C14.909 18.1344 14.6827 18.2862 14.5227 18.3662C14.3339 18.4673 14.1225 18.5185 13.9084 18.515C13.4959 18.515 13.1534 18.3056 12.8677 17.8775C12.8115 17.7931 12.6852 17.5412 12.5865 17.3169C12.2852 16.6294 12.1365 16.4194 11.7865 16.19C11.4809 15.99 11.0877 15.9544 10.7921 16.0994C10.4034 16.29 10.2952 16.7869 10.5734 17.1012C10.684 17.2262 10.8902 17.3344 11.059 17.355C11.1326 17.3648 11.2074 17.3586 11.2785 17.3369C11.3495 17.3153 11.4151 17.2786 11.4707 17.2294C11.5263 17.1802 11.5708 17.1197 11.601 17.0519C11.6312 16.984 11.6465 16.9105 11.6459 16.8363C11.6459 16.6287 11.5659 16.5112 11.3659 16.4206C11.0927 16.2975 10.799 16.4412 10.8002 16.6981C10.8009 16.8075 10.8484 16.8762 10.9584 16.9262C11.029 16.9575 11.0302 16.9606 10.9727 16.9488C10.7221 16.8962 10.6634 16.5944 10.8652 16.3938C11.1071 16.1525 11.6077 16.2587 11.7796 16.5875C11.8521 16.7256 11.8602 17.0013 11.7971 17.1675C11.6565 17.5394 11.2452 17.7344 10.8284 17.6281C10.5446 17.5556 10.429 17.4775 10.0871 17.125C9.49273 16.5125 9.26211 16.3937 8.40461 16.26L8.24023 16.2344L8.42711 16.0763Z" fill="white"/>
<path fill-rule="evenodd" clip-rule="evenodd" d="M5.74023 3.9775L5.80023 4.05062C8.11773 6.88812 9.31523 8.36062 9.39148 8.46562C9.51648 8.63937 9.46961 8.795 9.25461 8.9175C9.13523 8.98562 8.88898 9.05437 8.76648 9.05437C8.62711 9.05437 8.47023 8.9875 8.35586 8.87937C8.27523 8.8025 7.94961 8.31625 7.19773 7.14938C6.84564 6.59787 6.48896 6.04931 6.12773 5.50375C6.09711 5.475 6.09773 5.47562 7.13898 7.33875C7.79273 8.50875 8.01398 8.92188 8.01398 8.9775C8.01398 9.09 7.98273 9.14875 7.84398 9.30375C7.61273 9.56187 7.50961 9.85187 7.43461 10.4519C7.35086 11.125 7.11586 11.6 6.46336 12.4131C6.08211 12.8894 6.01961 12.9769 5.92273 13.1687C5.80148 13.41 5.76836 13.5456 5.75461 13.8506C5.74023 14.1731 5.76836 14.3819 5.86711 14.69C5.95336 14.96 6.04336 15.1387 6.27336 15.495C6.47211 15.8031 6.58648 16.0319 6.58648 16.1212C6.58648 16.1925 6.60023 16.1925 6.90836 16.1231C7.64523 15.9569 8.24336 15.6637 8.58023 15.305C8.78836 15.0831 8.83711 14.9606 8.83898 14.6562C8.83961 14.4575 8.83273 14.4156 8.77898 14.3012C8.69148 14.115 8.53211 13.96 8.18086 13.72C7.72023 13.405 7.52398 13.1513 7.46961 12.8031C7.42461 12.5175 7.47648 12.3156 7.73148 11.7819C7.99461 11.2294 8.06023 10.9944 8.10461 10.4375C8.13273 10.0775 8.17211 9.93563 8.27586 9.82188C8.38336 9.70313 8.48086 9.6625 8.74773 9.62625C9.18273 9.56687 9.45961 9.45438 9.68711 9.245C9.88461 9.0625 9.96711 8.88688 9.97961 8.62313L9.98961 8.42313L9.87898 8.29437C9.72023 8.10938 8.40711 6.66062 5.93898 3.94688L5.87273 3.875L5.74023 3.9775ZM6.81148 14.2162C6.85509 14.139 6.86811 14.0483 6.84797 13.9619C6.82783 13.8756 6.776 13.7999 6.70273 13.75C6.56023 13.655 6.33836 13.7 6.33836 13.8238C6.33836 13.8612 6.35898 13.8887 6.40586 13.9131C6.48523 13.9537 6.49086 14 6.42898 14.0931C6.36586 14.1881 6.37086 14.2719 6.44336 14.3287C6.55961 14.42 6.72398 14.3694 6.81148 14.2162ZM10.264 9.73125C10.0596 9.79375 9.86148 10.0106 9.79961 10.2375C9.76211 10.3756 9.78336 10.6187 9.83961 10.6937C9.93023 10.815 10.0184 10.8469 10.2559 10.845C10.7209 10.8419 11.1246 10.6425 11.1721 10.3931C11.2109 10.1887 11.0327 9.90562 10.7884 9.78062C10.6621 9.71688 10.394 9.69125 10.264 9.73125ZM10.8077 10.1562C10.8796 10.0544 10.8477 9.94375 10.7265 9.87C10.494 9.72813 10.1427 9.845 10.1427 10.065C10.1427 10.1738 10.3259 10.2931 10.4934 10.2931C10.6059 10.2931 10.7584 10.2263 10.8077 10.1562Z" fill="white"/>
</svg>
