<svg width="24" height="25" viewBox="0 0 24 25" fill="none" xmlns="http://www.w3.org/2000/svg">
<g clip-path="url(#clip0_580_13085)">
<path d="M11.8088 23.4286C18.0676 23.4286 23.1029 18.3933 23.1029 12.1344C23.1029 5.87559 18.0676 0.840332 11.8088 0.840332C5.54991 0.840332 0.514648 5.87559 0.514648 12.1344C0.514648 18.3933 5.54991 23.4286 11.8088 23.4286Z" fill="#2775CA"/>
<path d="M14.9132 13.9224C14.9132 12.2754 13.925 11.7107 11.9485 11.4754C10.5368 11.2872 10.2544 10.9107 10.2544 10.2518C10.2544 9.59294 10.725 9.16952 11.6662 9.16952C12.5132 9.16952 12.9838 9.45187 13.2191 10.1578C13.2662 10.2989 13.4074 10.393 13.5485 10.393H14.3014C14.4897 10.393 14.6308 10.2518 14.6308 10.0637V10.0166C14.4426 8.98125 13.5955 8.18128 12.5132 8.0872V6.95779C12.5132 6.76951 12.372 6.62833 12.1368 6.58124H11.4309C11.2426 6.58124 11.1015 6.72241 11.0544 6.95779V8.0401C9.64263 8.22838 8.7486 9.16952 8.7486 10.346C8.7486 11.899 9.68972 12.5107 11.6662 12.746C12.9838 12.9813 13.4074 13.2637 13.4074 14.0166C13.4074 14.7696 12.7485 15.2872 11.8544 15.2872C10.6308 15.2872 10.2073 14.7695 10.0662 14.0636C10.0192 13.8755 9.87799 13.7813 9.73682 13.7813H8.93675C8.7486 13.7813 8.60742 13.9224 8.60742 14.1107V14.1578C8.79558 15.3342 9.54855 16.1813 11.1015 16.4166V17.5461C11.1015 17.7342 11.2426 17.8754 11.4779 17.9225H12.1838C12.372 17.9225 12.5132 17.7813 12.5603 17.5461V16.4166C13.9721 16.1813 14.9132 15.193 14.9132 13.9224Z" fill="white"/>
<path d="M9.40899 18.8639C5.73841 17.5463 3.85602 13.4522 5.2208 9.82863C5.92668 7.85215 7.47962 6.34631 9.40899 5.64043C9.59727 5.54635 9.69135 5.40517 9.69135 5.1698V4.51102C9.69135 4.32274 9.59727 4.18157 9.40899 4.13458C9.3619 4.13458 9.26782 4.13458 9.22072 4.18157C4.75017 5.59333 2.30307 10.3463 3.71484 14.8169C4.5619 17.4522 6.58547 19.4757 9.22072 20.3228C9.40899 20.4169 9.59727 20.3228 9.64425 20.1345C9.69135 20.0875 9.69135 20.0404 9.69135 19.9463V19.2874C9.69135 19.1463 9.55017 18.9581 9.40899 18.8639ZM14.3973 4.18157C14.209 4.08749 14.0207 4.18157 13.9737 4.36984C13.9266 4.41694 13.9266 4.46392 13.9266 4.55811V5.2169C13.9266 5.40517 14.0678 5.59333 14.209 5.68752C17.8796 7.0051 19.762 11.0992 18.3972 14.7228C17.6913 16.6993 16.1384 18.2051 14.209 18.911C14.0207 19.0051 13.9266 19.1463 13.9266 19.3816V20.0404C13.9266 20.2287 14.0207 20.3699 14.209 20.4169C14.2561 20.4169 14.3502 20.4169 14.3973 20.3699C18.8678 18.9581 21.3149 14.2051 19.9032 9.73455C19.0561 7.05219 16.9854 5.02862 14.3973 4.18157Z" fill="white"/>
</g>
<defs>
<clipPath id="clip0_580_13085">
<rect width="24" height="24" fill="white" transform="translate(-0.00976562 0.148193)"/>
</clipPath>
</defs>
</svg>
